<svg width="262" height="262" viewBox="0 0 262 262" fill="none" xmlns="http://www.w3.org/2000/svg">
<path d="M129 122.5V122.957V123.413V123.869V124.325V124.78V125.235V125.69V126.144V126.598V127.051V127.504V127.957V128.409V128.861V129.312V129.763V130.213V130.663V131.113V131.562V132.011V132.46V132.908V133.355V133.803V134.249V134.696V135.141V135.587V136.032V136.477V136.921V137.364V137.808V138.25V138.693V139.135V139.576V140.017V140.458V140.898V141.337V141.777V142.215V142.653V143.091V143.529V143.965V144.402V144.838V145.273V145.708V146.142V146.576V147.01V147.443V147.875V148.307V148.739V149.17V149.6V150.03V150.46V150.889V151.317V151.745V152.173V152.6V153.026V153.452V153.877V154.302V154.727V155.15V155.574V155.997V156.419V156.84V157.262V157.682V158.102V158.522V158.941V159.36V159.777V160.195V160.612V161.028V161.444V161.859V162.274V162.688V163.101V163.514V163.926V164.338V164.749V165.16V165.57V165.98V166.388V166.797V167.205V167.612V168.018V168.424V168.83V169.235V169.639V170.042V170.445V170.848V171.25V171.651V172.051V172.451V172.851V173.25V173.648V174.045V174.442V174.838V175.234V175.629V176.024V176.417V176.811V177.203V177.595V177.986V178.377V178.767V179.156V179.545V179.933V180.32V180.707V181.093V181.479V181.863V182.247V182.631V183.014V183.396V183.777V184.158V184.538V184.918V185.296V185.675V186.052V186.429V186.805V187.18V187.555V187.929V188.302V188.675V189.047V189.418V189.788V190.158V190.527V190.896V191.263V191.63V191.996V192.362V192.727V193.091V193.454V193.817V194.179V194.54V194.901V195.261V195.62V195.978V196.335V196.692V197.048V197.404V197.758V198.112V198.465V198.818V199.169V199.52V199.87V200.22V200.568V200.916V201.263V201.609V201.955V202.3V202.644V202.987V203.329V203.671V204.012V204.352V204.691V205.03V205.367V205.704V206.041V206.376V206.711V207.044V207.377V207.709V208.041V208.371V208.701V209.03V209.358V209.685V210.012V210.338V210.662V210.986V211.31V211.632V211.954V212.274V212.594V212.913V213.232V213.549V213.865V214.181V214.496V214.81V215.123V215.435V215.747V216.058V216.367V216.676V216.984V217.291V217.598V217.903V218.208V218.511V218.814V219.116V219.417V219.717V220.017V220.315V220.613V220.909V221.205V221.5V221.794V222.087V222.379V222.671V222.961V223.25V223.539V223.827V224.114V224.399V224.684V224.968V225.251V225.534V225.815V226.095V226.375V226.653V226.931V227.207V227.483V227.758V228.032V228.305V228.577V228.848V229.118V229.387V229.655V229.922V230.189V230.454V230.718V230.982V231.244V231.506V231.766V232.026V232.284V232.542V232.798V233.054V233.309V233.562V233.815V234.067V234.318V234.567V234.816V235.064V235.311V235.557V235.801V236.045V236.288V236.53V236.771V237.01V237.249V237.487V237.724V237.959V238.194V238.428V238.66V238.892V239.123V239.352V239.581V239.808V240.035V240.26V240.485V240.708V240.931V241.152V241.372V241.591V241.809V242.027V242.243V242.458V242.672V242.884V243.096V243.307V243.517V243.725V243.933V244.139V244.345V244.549V244.752V244.955V245.156V245.356V245.555V245.752V245.949V246.145V246.339V246.533V246.725V246.917V247.107V247.296V247.484V247.671V247.856V248.041V248.224V248.407V248.588V248.768V248.947V249.125V249.302V249.478V249.652V249.826V249.998V250.169V250.339V250.508V250.676V250.842V251.008V251.172V251.335V251.497V251.658V251.817V251.976V252.133V252.289V252.444V252.598V252.751V252.903V253.053V253.202V253.35V253.497V253.642V253.787V253.93V254.072V254.213V254.353V254.491V254.629V254.765V254.9V255.033V255.166V255.297V255.427V255.556V255.684V255.81V255.936V256.06V256.182V256.304V256.424V256.544V256.661V256.778V256.894V257.008V257.121V257.233V257.343V257.452V257.56V257.667V257.773V257.877V257.98V258.082V258.182V258.282V258.38V258.477V258.572V258.666V258.759V258.851V258.941V259.031V259.118V259.205V259.29V259.374V259.457V259.539V259.619V259.698V259.775V259.852V259.927V259.985C58.6775 258.916 2 201.577 2 131C2 60.4231 58.6775 3.08401 129 2.01519V2.04438V2.11812V2.19263V2.26792V2.34398V2.42082V2.49843V2.57682V2.65598V2.73592V2.81663V2.89811V2.98037V3.0634V3.1472V3.23178V3.31713V3.40325V3.49015V3.57782V3.66626V3.75547V3.84545V3.93621V4.02774V4.12003V4.21311V4.30695V4.40156V4.49694V4.59309V4.69002V4.78771V4.88618V4.98541V5.08541V5.18619V5.28773V5.39004V5.49312V5.59697V5.70159V5.80697V5.91313V6.02005V6.12774V6.2362V6.34542V6.45541V6.56617V6.6777V6.78999V6.90305V7.01688V7.13147V7.24683V7.36296V7.47985V7.5975V7.71592V7.83511V7.95506V8.07578V8.19726V8.31951V8.44252V8.56629V8.69083V8.81613V8.9422V9.06903V9.19662V9.32498V9.45409V9.58397V9.71462V9.84602V9.97819V10.1111V10.2448V10.3793V10.5145V10.6505V10.7872V10.9247V11.063V11.202V11.3418V11.4823V11.6236V11.7657V11.9085V12.0521V12.1964V12.3415V12.4874V12.634V12.7814V12.9295V13.0784V13.228V13.3784V13.5296V13.6815V13.8342V13.9877V14.1418V14.2968V14.4525V14.609V14.7662V14.9242V15.0829V15.2424V15.4026V15.5636V15.7254V15.8879V16.0512V16.2152V16.38V16.5455V16.7118V16.8788V17.0466V17.2152V17.3845V17.5545V17.7253V17.8969V18.0692V18.2423V18.4161V18.5907V18.766V18.9421V19.1189V19.2965V19.4748V19.6539V19.8337V20.0143V20.1956V20.3777V20.5605V20.7441V20.9285V21.1135V21.2994V21.486V21.6733V21.8614V22.0502V22.2398V22.4301V22.6212V22.813V23.0056V23.1989V23.393V23.5878V23.7834V23.9797V24.1767V24.3745V24.5731V24.7724V24.9724V25.1732V25.3748V25.577V25.7801V25.9838V26.1884V26.3936V26.5996V26.8064V27.0139V27.2221V27.4311V27.6408V27.8513V28.0625V28.2745V28.4872V28.7006V28.9148V29.1298V29.3454V29.5619V29.779V29.9969V30.2156V30.435V30.6551V30.876V31.0976V31.3199V31.543V31.7668V31.9914V32.2167V32.4428V32.6696V32.8971V33.1254V33.3544V33.5841V33.8146V34.0459V34.2778V34.5105V34.744V34.9782V35.2131V35.4487V35.6851V35.9223V36.1602V36.3988V36.6381V36.8782V37.119V37.3606V37.6029V37.8459V38.0896V38.3341V38.5794V38.8254V39.0721V39.3195V39.5677V39.8166V40.0662V40.3166V40.5677V40.8196V41.0722V41.3255V41.5795V41.8343V42.0898V42.3461V42.603V42.8607V43.1192V43.3784V43.6383V43.8989V44.1603V44.4224V44.6852V44.9488V45.2131V45.4781V45.7439V46.0104V46.2776V46.5455V46.8142V47.0836V47.3538V47.6246V47.8962V48.1686V48.4416V48.7154V48.9899V49.2651V49.5411V49.8178V50.0952V50.3734V50.6523V50.9319V51.2122V51.4933V51.775V52.0576V52.3408V52.6248V52.9095V53.1949V53.481V53.7679V54.0555V54.3438V54.6328V54.9226V55.2131V55.5043V55.7963V56.0889V56.3823V56.6764V56.9713V57.2668V57.5631V57.8601V58.1579V58.4563V58.7555V59.0554V59.356V59.6573V59.9594V60.2622V60.5657V60.8699V61.1749V61.4805V61.7869V62.094V62.4019V62.7104V63.0197V63.3297V63.6404V63.9518V64.264V64.5768V64.8904V65.2047V65.5197V65.8355V66.1519V66.4691V66.787V67.1056V67.425V67.745V68.0658V68.3873V68.7095V69.0324V69.356V69.6804V70.0054V70.3312V70.6577V70.9849V71.3129V71.6415V71.9709V72.3009V72.6317V72.9632V73.2954V73.6284V73.962V74.2964V74.6314V74.9672V75.3037V75.6409V75.9789V76.3175V76.6569V76.9969V77.3377V77.6792V78.0214V78.3643V78.7079V79.0522V79.3973V79.743V80.0895V80.4367V80.7846V81.1332V81.4825V81.8325V82.1832V82.5347V82.8868V83.2397V83.5932V83.9475V84.3025V84.6582V85.0146V85.3717V85.7295V86.088V86.4473V86.8072V87.1678V87.5292V87.8913V88.254V88.6175V88.9817V89.3465V89.7121V90.0784V90.4454V90.8131V91.1816V91.5507V91.9205V92.291V92.6623V93.0342V93.4069V93.7802V94.1542V94.529V94.9045V95.2806V95.6575V96.035V96.4133V96.7923V97.172V97.5523V97.9334V98.3152V98.6977V99.0809V99.4648V99.8493V100.235V100.621V101.007V101.395V101.783V102.172V102.561V102.951V103.342V103.734V104.126V104.519V104.913V105.307V105.702V106.098V106.494V106.892V107.29V107.688V108.087V108.487V108.888V109.289V109.691V110.094V110.498V110.902V111.307V111.712V112.118V112.525V112.933V113.341V113.75V114.16V114.57V114.982V115.393V115.806V116.219V116.633V117.047V117.463V117.879V118.295V118.713V119.131V119.549V119.969V120.389V120.81V121.231V121.654V122.076V122.5Z" fill="white" stroke="black" stroke-width="4"/>
<path d="M131 122.5C131 200.5 131 262 131 262C203.349 262 262 203.349 262 131C262 58.6507 203.349 0 131 0C131 8 131 50.1507 131 122.5Z" fill="black"/>
<circle cx="131.5" cy="131.5" r="88.5" fill="white" stroke="black" stroke-width="4"/>
<circle cx="131.5" cy="131.5" r="78.5" fill="black"/>
<rect x="102" y="83" width="14" height="95" fill="white"/>
<rect x="149.153" y="83" width="14" height="66.4074" transform="rotate(45 149.153 83)" fill="white"/>
<rect x="102" y="130.975" width="14" height="66.684" transform="rotate(-45 102 130.975)" fill="white"/>
</svg>
